<svg width="100" height="100" viewBox="0 0 100 100" fill="none" xmlns="http://www.w3.org/2000/svg">
<g clip-path="url(#clip0_5_63)">
<path d="M49.9267 -0.0976753C50.229 -0.103104 50.229 -0.103104 50.5373 -0.108643C51.6782 -0.0990935 52.4521 -0.0391928 53.3203 0.781231C53.8983 1.67068 53.761 2.77238 53.7475 3.79637C53.7474 3.97777 53.7473 4.15917 53.7472 4.34607C53.7413 5.26188 53.7035 6.13079 53.5156 7.03123C54.6328 7.28707 55.2582 7.14385 56.2256 6.59178C56.5035 6.44455 56.782 6.29839 57.061 6.15309C57.2125 6.07381 57.364 5.99454 57.5202 5.91286C62.5935 3.32411 68.2023 1.33432 73.8281 0.390606C74.0312 0.355232 74.2342 0.319859 74.4434 0.283413C76.2711 -0.00955223 78.0611 -0.0779893 79.9072 -0.0732613C80.0568 -0.07322 80.2065 -0.0731786 80.3606 -0.0731361C82.7495 -0.0665713 85.0017 0.100706 87.3047 0.781231C87.5484 0.849712 87.7921 0.918194 88.0432 0.98875C92.1271 2.2898 95.6424 5.18958 97.686 8.95842C100.671 14.7771 100.656 21.8622 99.2187 28.125C99.1789 28.3047 99.1392 28.4845 99.0982 28.6697C98.1992 32.6541 96.8577 36.5579 95.0805 40.2344C94.3841 41.6902 94.1555 42.7312 94.5312 44.3359C94.6931 45.4453 94.7599 46.5245 94.7662 47.6448C94.7676 47.8082 94.769 47.9716 94.7704 48.14C94.7738 48.6664 94.775 49.1928 94.7754 49.7192C94.7755 49.899 94.7756 50.0789 94.7758 50.2641C94.7726 53.0136 94.6812 55.6942 94.1406 58.3984C94.1071 58.5691 94.0736 58.7398 94.039 58.9156C93.2487 62.8095 91.8595 69.1899 88.8855 72.036C88.3871 72.3158 88.1863 72.2699 87.6343 72.168C87.1657 72.1302 87.1657 72.1302 86.7187 72.2656C86.2881 72.7406 86.0071 73.2344 85.6987 73.7961C85.2328 74.6255 84.6521 75.3464 84.0637 76.0918C83.7433 76.5335 83.7433 76.5335 83.8356 76.9859C83.8847 77.104 83.9338 77.2221 83.9844 77.3437C84.2286 78.1874 84.1482 78.6884 83.789 79.4922C83.3405 80.1068 83.0951 80.2524 82.3486 80.4321C81.6406 80.4687 81.6406 80.4687 81.0615 80.3261C80.4628 80.2079 80.4628 80.2079 80.0453 80.5771C79.9151 80.7266 79.785 80.8762 79.6509 81.0303C78.8296 81.9257 77.9491 82.6656 76.9897 83.4091C76.5157 83.767 76.5157 83.767 76.3672 84.375C76.3918 84.751 76.4168 85.1271 76.4557 85.5018C76.2815 86.3593 75.6766 86.9015 74.9943 87.3974C74.5268 87.6968 74.0526 87.9792 73.5718 88.2568C73.3986 88.3584 73.2255 88.4601 73.0471 88.5648C68.7822 91.0415 64.22 92.9425 59.375 93.9453C59.2032 93.9814 59.0314 94.0175 58.8545 94.0547C55.8515 94.6572 52.9062 94.8002 49.8535 94.7998C49.6789 94.8001 49.5042 94.8005 49.3243 94.8009C47.388 94.8004 45.5145 94.7279 43.6041 94.3997C42.4843 94.2873 41.5591 94.4987 40.5426 94.9585C40.345 95.0458 40.1474 95.1331 39.9438 95.2231C39.7335 95.3171 39.5233 95.411 39.3066 95.5078C35.5323 97.1454 31.648 98.4913 27.6126 99.3188C27.3145 99.3799 27.017 99.4435 26.7201 99.5101C22.6251 100.419 17.5365 100.529 13.4765 99.414C13.2311 99.3476 12.9856 99.2811 12.7327 99.2126C10.0913 98.4124 7.7185 97.1619 5.66404 95.3125C5.53287 95.1994 5.4017 95.0864 5.26655 94.9699C1.92169 91.8911 0.167809 87.0428 -0.0274408 82.5758C-0.234481 74.8451 1.29402 67.3029 4.66592 60.3032C5.46092 58.6526 5.90085 57.5099 5.46873 55.664C5.30639 54.5524 5.24002 53.4709 5.23374 52.3483C5.2317 52.1023 5.2317 52.1023 5.22962 51.8514C5.22623 51.3238 5.22498 50.7962 5.22459 50.2685C5.22439 50.0886 5.22419 49.9087 5.22399 49.7233C5.22598 47.041 5.31695 44.4322 5.85935 41.7969C5.89381 41.6274 5.92827 41.458 5.96378 41.2835C6.172 40.2783 6.39801 39.2787 6.6406 38.2812C6.26597 38.2148 6.26597 38.2148 5.88377 38.147C4.86922 37.9417 3.86876 37.6923 2.86863 37.4267C2.71697 37.3883 2.56531 37.3499 2.40905 37.3102C1.51122 37.0662 0.879018 36.7967 0.19529 36.1328C-0.113938 35.5143 -0.125754 34.8487 -2.2687e-05 34.1797C0.507682 33.3463 1.07524 32.6637 1.76313 31.974C1.85508 31.8817 1.94703 31.7894 2.04177 31.6942C2.23482 31.5009 2.42835 31.3081 2.62234 31.1158C2.91738 30.8228 3.21027 30.5278 3.50301 30.2326C3.69197 30.0439 3.88105 29.8553 4.07026 29.6669C4.24019 29.4974 4.41012 29.3279 4.5852 29.1533C5.42488 28.3997 6.01792 28.0455 7.1533 28.0762C7.35925 28.0812 7.56519 28.0862 7.77738 28.0914C8.34473 28.1221 8.90727 28.1669 9.47263 28.2226C9.64736 28.237 9.82209 28.2513 10.0021 28.2661C10.5469 28.3203 10.5469 28.3203 11.1404 28.4294C11.8089 28.5115 12.2472 28.5277 12.8906 28.3203C13.5433 27.5987 13.98 26.8057 14.4407 25.9533C16.1837 22.8706 18.9682 20.2225 21.4844 17.7734C21.3537 17.676 21.223 17.5785 21.0884 17.4782C19.467 16.2659 17.858 15.0378 16.2511 13.8065C15.6918 13.3781 15.1322 12.9502 14.5725 12.5223C14.2984 12.3127 14.0244 12.103 13.7505 11.8933C13.0312 11.3425 12.3105 10.7937 11.5875 10.2478C11.4378 10.1344 11.2881 10.0209 11.1339 9.90408C10.8488 9.68807 10.5632 9.47263 10.2772 9.25787C8.11195 7.6145 8.11195 7.6145 7.88572 6.34764C7.91234 5.20302 8.67844 4.58197 9.45604 3.82002C9.81552 3.46652 10.1681 3.10675 10.5209 2.74656C11.038 2.22149 11.5559 1.69723 12.0781 1.1772C12.1876 1.06791 12.2971 0.958629 12.4099 0.846033C13.0158 0.29378 13.5823 0.331026 14.3674 0.341319C15.1426 0.42153 15.7535 0.727975 16.4383 1.08412C16.6569 1.19244 16.6569 1.19244 16.8799 1.30294C17.3503 1.53686 17.8181 1.77546 18.2861 2.01414C18.6127 2.17743 18.9394 2.34035 19.2663 2.5029C19.9109 2.82376 20.5548 3.1461 21.1981 3.46973C22.2793 4.01253 23.3695 4.53579 24.4629 5.05369C24.8083 5.21815 25.1536 5.38269 25.4989 5.54731C25.6691 5.62835 25.8392 5.70939 26.0145 5.79288C26.6296 6.08672 27.2438 6.38222 27.8579 6.67799C28.0774 6.78364 28.2969 6.88929 28.523 6.99814C28.9434 7.20056 29.3636 7.40317 29.7838 7.60601C30.1614 7.78771 30.5394 7.96844 30.9179 8.14808C31.263 8.31188 31.607 8.47793 31.9498 8.64647C32.1041 8.71995 32.2583 8.79344 32.4173 8.86915C32.5509 8.93412 32.6845 8.9991 32.8221 9.06604C33.3239 9.2157 33.5032 9.20172 33.9844 8.98436C34.3857 8.62382 34.7546 8.26353 35.1249 7.87352C35.3511 7.64181 35.5773 7.41013 35.8036 7.17848C36.1551 6.81493 36.506 6.45075 36.8561 6.08585C40.5105 2.28931 44.5473 -0.0368265 49.9267 -0.0976753ZM73.2422 4.68748C72.9844 4.74569 72.9844 4.74569 72.7214 4.80507C69.8844 5.46042 67.1671 6.37342 64.4531 7.42186C64.9552 7.92399 65.5057 8.06304 66.1621 8.28856C70.4467 9.83491 74.4033 12.1724 77.9297 15.039C78.0304 15.1197 78.1312 15.2004 78.235 15.2835C81.062 17.5537 83.6098 20.112 85.7422 23.0469C85.8917 23.2508 86.0413 23.4547 86.1954 23.6648C88.8225 27.3538 91.003 31.4212 92.3828 35.7422C93.0415 34.7541 93.3382 33.6036 93.7134 32.4829C93.7571 32.3527 93.8009 32.2226 93.846 32.0884C95.0926 28.3545 95.9344 24.5772 95.9453 20.6297C95.9472 20.2212 95.9533 19.813 95.9594 19.4046C95.9927 15.1922 94.8226 11.2026 91.8884 8.08256C90.3251 6.57365 88.5764 5.57971 86.5234 4.88279C86.4021 4.84144 86.2808 4.80009 86.1559 4.75748C82.1797 3.48324 77.2733 3.75837 73.2422 4.68748ZM7.42185 64.4531C5.55971 69.3419 4.06982 74.2205 4.05462 79.4969C4.05274 79.8894 4.04665 80.2819 4.0405 80.6743C4.02414 84.8449 5.18259 88.8164 8.08637 91.9044C11.3891 95.0185 15.5785 96.0185 20.0195 95.9839C20.1545 95.9832 20.2895 95.9826 20.4285 95.9819C25.7744 95.9444 30.7641 94.4246 35.7422 92.5781C35.2677 92.2618 34.9244 92.0817 34.4024 91.8899C30.8929 90.5644 27.4493 88.9452 24.414 86.7187C24.1316 86.5156 24.1316 86.5156 23.8434 86.3083C20.3344 83.7356 17.0871 80.8005 14.5022 77.2852C14.2583 76.9538 14.01 76.6262 13.7611 76.2985C11.1486 72.8075 8.92374 68.6166 7.61716 64.4531C7.55271 64.4531 7.48826 64.4531 7.42185 64.4531Z" fill="#010101"/>
<path d="M62.5247 11.0741C66.5842 12.4377 70.3611 14.2799 73.8282 16.7969C73.9432 16.8791 74.0583 16.9613 74.1769 17.0461C76.4081 18.6496 78.5538 20.5066 80.2735 22.6563C80.1044 22.6571 79.9353 22.6579 79.7611 22.6587C79.1195 22.664 78.4783 22.6737 77.8368 22.6861C77.5619 22.6905 77.2869 22.6934 77.0119 22.6945C73.8168 22.7093 71.001 23.608 68.6035 25.8301C66.6774 27.8994 65.7602 30.2547 65.6145 33.0396C65.5618 33.7317 65.4824 34.1176 65.0284 34.652C64.3171 35.034 63.6432 35.1357 62.854 35.2295C61.4159 35.4437 60.3364 35.7977 59.1797 36.7188C59.0543 36.8169 58.929 36.9151 58.7998 37.0163C57.614 38.0686 56.5305 39.8755 56.4108 41.4784C56.3977 42.0728 56.3897 42.6671 56.3843 43.2617C56.3786 43.4647 56.373 43.6676 56.3671 43.8767C56.3498 46.0219 56.9386 47.8211 58.3985 49.4141C59.8438 50.8798 61.6655 51.7952 63.7403 51.8108C63.9759 51.8096 63.9759 51.8096 64.2164 51.8084C64.469 51.8094 64.469 51.8094 64.7268 51.8104C65.2811 51.8121 65.8353 51.811 66.3895 51.8097C66.7757 51.81 67.1619 51.8103 67.548 51.8108C68.3561 51.8114 69.1642 51.8106 69.9723 51.8087C71.0082 51.8065 72.0441 51.8078 73.0801 51.8101C73.877 51.8116 74.6738 51.8111 75.4707 51.8101C75.8528 51.8098 76.2348 51.8102 76.6168 51.8111C77.1503 51.8121 77.6836 51.8105 78.2171 51.8084C78.3749 51.8092 78.5328 51.8099 78.6955 51.8108C79.7447 51.8114 79.7447 51.8114 80.6641 51.3672C81.058 50.7763 81.1051 50.662 81.0913 50C81.0901 49.8671 81.0888 49.7341 81.0875 49.5972C81.0658 49.1763 81.0658 49.1763 80.8594 48.6328C80.0328 48.1585 79.1815 48.1874 78.2549 48.1923C78.0127 48.1913 78.0127 48.1913 77.7656 48.1902C77.4159 48.1888 77.0663 48.1883 76.7166 48.1886C76.1623 48.1888 75.608 48.1863 75.0537 48.1829C73.478 48.1739 71.9023 48.1691 70.3266 48.1678C69.3617 48.1668 68.3969 48.1621 67.4321 48.155C67.0654 48.1531 66.6987 48.1527 66.332 48.1537C65.8179 48.1551 65.3039 48.1517 64.7897 48.1473C64.5649 48.1497 64.5649 48.1497 64.3355 48.1521C63.1465 48.1341 62.1132 47.8092 61.2243 46.9899C59.9293 45.5189 59.9986 43.8565 60.108 42.0014C60.2416 40.8947 60.8523 40.2991 61.6333 39.5752C62.4501 39.0307 63.074 38.8194 64.0609 38.6842C65.5548 38.4772 66.7038 38.2517 67.7735 37.1094C67.997 36.8737 67.997 36.8737 68.2251 36.6333C68.9823 35.4835 69.215 34.4866 69.3116 33.1421C69.4952 31.2181 70.0913 29.7134 71.4844 28.3203C73.0956 27.0617 74.6077 26.4784 76.6388 26.4626C76.8082 26.4591 76.9775 26.4555 77.152 26.4519C77.6879 26.4414 78.2238 26.4348 78.7598 26.4282C79.1224 26.4217 79.4851 26.415 79.8477 26.408C81.0313 26.3861 82.2147 26.3672 83.3985 26.3672C83.7409 26.7987 84.0125 27.2015 84.2896 27.6733C84.3734 27.8125 84.4572 27.9517 84.5435 28.0951C87.0214 32.2701 88.9543 36.5032 89.9314 41.276C90.0028 41.6214 90.0774 41.9661 90.1552 42.3102C91.1504 46.7191 91.2232 51.597 90.4297 56.0547C90.4013 56.2294 90.3729 56.4042 90.3437 56.5842C89.6852 60.5903 88.5202 64.4542 86.6163 68.0542C86.1538 68.9574 85.8824 69.8724 85.9375 70.8984C86.1913 71.2291 86.451 71.5555 86.7188 71.875C86.4782 73.2187 85.4699 74.2521 84.6554 75.3014C84.542 75.4522 84.4286 75.603 84.3117 75.7584C84.2068 75.8941 84.1019 76.0298 83.9938 76.1697C83.747 76.5508 83.747 76.5508 83.8457 76.9744C83.9144 77.1572 83.9144 77.1572 83.9844 77.3438C84.2286 78.1874 84.1482 78.6884 83.7891 79.4922C83.3405 80.1069 83.0951 80.2524 82.3487 80.4321C81.6406 80.4688 81.6406 80.4688 81.0616 80.3261C80.4629 80.208 80.4629 80.208 80.0453 80.5771C79.9152 80.7266 79.785 80.8762 79.6509 81.0303C78.9927 81.7421 78.3225 82.3885 77.5757 83.0078C77.314 83.2253 77.314 83.2253 77.047 83.4473C76.5995 83.763 76.3229 83.936 75.7813 83.9844C75.6604 83.8917 75.5396 83.7991 75.4151 83.7036C74.8487 83.2872 74.5221 83.3368 73.8282 83.3984C73.2824 83.6354 73.2824 83.6354 72.7539 83.9844C72.5492 84.1095 72.3446 84.2346 72.1337 84.3636C71.9194 84.4962 71.7052 84.6289 71.4844 84.7656C67.7058 87.0202 62.4978 90.0391 58.0078 90.0391C58.004 89.9024 58.0001 89.7657 57.9961 89.6249C57.9773 88.9939 57.956 88.3629 57.9346 87.7319C57.9255 87.4096 57.9255 87.4096 57.9163 87.0808C57.8178 84.2974 57.4047 82.1399 55.468 80.0491C53.4052 78.1357 50.7867 77.8429 48.0789 77.8503C47.8517 77.8482 47.6244 77.8461 47.3903 77.8439C46.4298 77.8351 45.4694 77.8327 44.5089 77.8298C43.8027 77.8268 43.0966 77.8203 42.3905 77.8137C42.067 77.8146 42.067 77.8146 41.7369 77.8155C40.2885 77.8014 39.3908 77.5832 38.147 76.8311C37.0152 75.6687 36.7815 74.1622 36.5653 72.6095C36.4196 71.6676 36.1042 71.0765 35.5469 70.3125C35.4825 70.1191 35.418 69.9258 35.3516 69.7266C35.0166 69.5261 35.0166 69.5261 34.5703 69.3359C34.2287 69.1373 33.8896 68.9348 33.5511 68.7309C32.8018 68.3514 32.0914 68.3358 31.2607 68.3319C31.0341 68.3281 30.8075 68.3244 30.5741 68.3205C30.1016 68.3139 29.629 68.3103 29.1565 68.3098C27.443 68.2739 26.0662 67.9913 24.7776 66.8019C23.6866 65.649 23.2145 64.5822 23.169 62.9883C23.215 61.3771 23.704 60.3258 24.7902 59.153C26.0008 58.0656 27.1999 57.7682 28.7857 57.6874C29.8249 57.5447 30.5668 56.9804 31.2378 56.2012C31.4341 55.6932 31.4877 55.3334 31.5308 54.7974C31.6065 53.9205 31.8369 53.4142 32.4219 52.7344C33.2702 52.0705 33.8232 51.8547 34.8971 51.8489C35.2805 51.8443 35.2805 51.8443 35.6716 51.8396C35.9484 51.8403 36.2253 51.8413 36.5021 51.8425C36.7891 51.8415 37.0762 51.8403 37.3632 51.8388C37.9641 51.8368 38.5649 51.8377 39.1658 51.8405C39.9311 51.8439 40.6962 51.8393 41.4614 51.8324C42.0543 51.8281 42.6471 51.8284 43.24 51.8301C43.5219 51.8302 43.8037 51.8289 44.0856 51.826C46.1063 51.8084 47.6187 52.0699 49.1944 53.4058C50.6001 55.1009 50.8359 56.4162 50.8278 58.5602C50.8308 59.0192 50.834 59.4783 50.8374 59.9373C50.8406 60.6569 50.8423 61.3764 50.8409 62.0959C50.8404 62.7933 50.8459 63.4903 50.8522 64.1876C50.8492 64.5066 50.8492 64.5066 50.8462 64.8321C50.8642 66.2567 51.1251 67.3746 51.9532 68.5547C52.8844 69.4268 53.6883 69.9415 54.9874 69.9493C59.0116 70.0206 59.0116 70.0206 60.4737 71.3913C61.3597 72.383 61.5714 73.1356 61.5906 74.4492C61.5935 74.584 61.5963 74.7188 61.5993 74.8578C61.6083 75.2877 61.615 75.7175 61.6211 76.1475C61.6292 76.7126 61.6397 77.2776 61.6516 77.8427C61.6553 78.0934 61.6589 78.3442 61.6627 78.6025C61.7187 79.2957 61.8247 79.8346 62.1094 80.4688C62.8223 80.7064 63.5192 80.8115 64.2578 80.6641C64.7943 80.3839 64.7943 80.3839 65.2344 79.8828C65.3314 79.301 65.3671 78.8327 65.3572 78.2516C65.3579 78.0132 65.3579 78.0132 65.3587 77.7698C65.3585 77.4333 65.3559 77.0967 65.351 76.7602C65.3443 76.2508 65.3469 75.7421 65.3507 75.2327C65.3485 72.423 64.8081 70.5035 62.7922 68.4509C60.8755 66.7379 58.3698 66.3655 55.8922 66.2676C54.9 66.2281 54.9 66.2281 54.6875 66.0156C54.6656 65.7263 54.6569 65.436 54.6536 65.1459C54.6497 64.868 54.6497 64.868 54.6456 64.5844C54.6426 64.2811 54.6426 64.2811 54.6395 63.9717C54.633 63.5451 54.6265 63.1185 54.62 62.6919C54.6108 62.0182 54.6021 61.3445 54.5944 60.6708C54.5866 60.0214 54.5765 59.3721 54.5662 58.7227C54.5638 58.4247 54.5638 58.4247 54.5612 58.1207C54.5192 55.6531 54.0044 53.5773 52.5391 51.5625C52.4344 51.4054 52.3296 51.2483 52.2217 51.0864C50.5423 49.2744 48.1531 48.2663 45.699 48.1304C45.007 48.1105 44.3163 48.1125 43.6241 48.1194C43.3221 48.1192 43.0201 48.1187 42.718 48.1179C42.0908 48.1174 41.4638 48.1202 40.8366 48.1256C40.0379 48.1323 39.2394 48.1311 38.4406 48.1274C37.8191 48.1254 37.1976 48.1271 36.5761 48.13C36.2817 48.131 35.9873 48.131 35.6929 48.1297C33.1631 48.1231 31.3961 48.513 29.5319 50.2922C28.5804 51.3736 28.1284 52.4911 27.9297 53.9063C27.6253 53.9705 27.6253 53.9705 27.3148 54.036C25.6421 54.4086 24.2608 54.8416 22.8516 55.8594C22.6784 55.9722 22.5052 56.085 22.3267 56.2012C20.5696 57.9108 19.4918 60.1416 19.4336 62.5977C19.5503 65.5046 20.3062 67.7039 22.461 69.7144C22.7822 69.9841 23.1072 70.2493 23.4375 70.5078C23.6022 70.6374 23.6022 70.6374 23.7702 70.7695C25.5927 71.9891 28.125 71.9532 30.235 71.9793C31.8809 72.0171 31.8809 72.0171 32.6172 72.6563C32.827 73.0293 32.827 73.0293 32.9468 73.4497C33.0152 73.6831 33.0152 73.6831 33.0849 73.9212C33.201 74.4053 33.2897 74.8879 33.3741 75.3784C33.7306 77.2603 34.707 78.9201 36.2465 80.0613C38.1415 81.3212 39.5666 81.5006 41.8076 81.4987C42.3114 81.5027 42.8152 81.5068 43.319 81.5109C44.1088 81.5158 44.8987 81.5187 45.6886 81.5197C46.4539 81.5209 47.2191 81.5282 47.9843 81.5353C48.2188 81.5344 48.4532 81.5334 48.6947 81.5324C50.3584 81.5518 51.4909 81.8912 52.8931 82.7637C54.0272 83.9302 54.1832 85.0083 54.1762 86.5898C54.1702 86.9909 54.1604 87.3919 54.1504 87.793C54.1465 88.0681 54.1429 88.3433 54.1397 88.6185C54.1306 89.2875 54.1178 89.9562 54.1016 90.625C49.0833 91.5411 43.3209 90.7137 38.4766 89.2578C38.3473 89.2201 38.218 89.1824 38.0847 89.1435C31.4218 87.1756 25.6454 83.3176 20.7032 78.5156C20.5273 78.3454 20.5273 78.3454 20.348 78.1717C15.3793 73.2919 11.0328 65.6888 10.0701 58.754C10.1984 57.6433 10.7098 56.8113 11.2549 55.8472C11.4234 55.5424 11.4234 55.5424 11.5954 55.2314C12.715 53.2326 13.9388 51.3017 15.1968 49.3878C15.4367 49.0266 15.4367 49.0266 15.625 48.6328C15.7539 48.6328 15.8828 48.6328 16.0157 48.6328C16.1112 48.9965 16.1112 48.9965 16.2087 49.3675C16.2948 49.6882 16.381 50.0089 16.4673 50.3296C16.5298 50.5688 16.5298 50.5688 16.5936 50.8129C16.961 52.1785 16.961 52.1785 17.7735 53.3203C18.5185 53.4638 19.2438 53.508 19.8956 53.0825C20.011 52.9749 20.1265 52.8674 20.2454 52.7565C20.3795 52.6324 20.5136 52.5083 20.6517 52.3805C21.4861 51.5739 22.3135 50.7614 23.1324 49.939C23.31 49.7621 23.4876 49.5852 23.6706 49.403C23.8392 49.2342 24.0077 49.0654 24.1814 48.8915C24.4104 48.6621 24.4104 48.6621 24.6441 48.4281C25.4752 47.538 25.2461 46.3545 25.217 45.2062C25.1673 44.1052 25.0547 43.0085 24.9437 41.9123C24.926 41.737 24.9084 41.5617 24.8902 41.3811C24.8738 41.2258 24.8574 41.0706 24.8406 40.9107C24.8287 40.752 24.8169 40.5932 24.8047 40.4297C24.7862 40.2469 24.7677 40.0641 24.7487 39.8758C24.8224 39.0632 25.0887 38.8318 25.6653 38.2642C25.8025 38.1268 25.8025 38.1268 25.9424 37.9866C26.2441 37.6857 26.5497 37.3892 26.8555 37.0926C27.0659 36.8843 27.2761 36.6758 27.4861 36.4671C28.0384 35.9192 28.5941 35.375 29.1506 34.8315C29.7183 34.2758 30.2826 33.7168 30.8472 33.1581C31.9548 32.063 33.0661 30.9718 34.1797 29.8828C34.7397 30.4384 35.2788 30.982 35.7605 31.6071C35.9212 31.8146 35.9212 31.8146 36.0852 32.0263C36.1976 32.173 36.31 32.3196 36.4258 32.4707C36.5451 32.6253 36.6645 32.7799 36.7874 32.9391C37.156 33.4171 37.5235 33.8959 37.8907 34.375C38.0007 34.5184 38.1108 34.6618 38.2242 34.8096C38.8559 35.6332 39.4861 36.458 40.1155 37.2834C40.4313 37.6974 40.7474 38.1111 41.0637 38.5246C41.1687 38.6619 41.2737 38.7992 41.3818 38.9406C41.5922 39.2156 41.8027 39.4905 42.0132 39.7654C42.5639 40.4846 43.1126 41.2053 43.6585 41.9281C43.7719 42.0778 43.8853 42.2275 44.0022 42.3817C44.2182 42.6668 44.4336 42.9524 44.6484 43.2385C45.6812 44.7131 45.6812 44.7131 47.229 45.4468C48.8234 45.3398 50.0957 43.7111 51.1475 42.6392C51.2769 42.5096 51.4063 42.3801 51.5396 42.2466C52.6285 41.2052 52.6285 41.2052 53.0518 39.8071C53.0203 38.8264 52.6943 38.0983 52.2423 37.2467C52.0987 36.968 51.9553 36.6893 51.812 36.4104C51.7381 36.2676 51.6642 36.1248 51.588 35.9777C51.2364 35.2916 50.9 34.5982 50.5638 33.9043C50.4973 33.7673 50.4307 33.6303 50.3621 33.4891C50.1558 33.0643 49.9497 32.6393 49.7437 32.2144C49.6718 32.0663 49.6 31.9183 49.526 31.7658C48.4693 29.588 47.4156 27.4088 46.3776 25.222C46.0478 24.5278 45.7112 23.8373 45.3705 23.1484C45.2448 22.8912 45.2448 22.8912 45.1165 22.6288C44.9591 22.3072 44.8 21.9864 44.6389 21.6667C44.5701 21.5252 44.5014 21.3837 44.4306 21.238C44.3696 21.1152 44.3086 20.9924 44.2457 20.8659C44.1087 20.399 44.1558 20.1776 44.336 19.7266C46.537 16.8051 49.6029 14.858 52.7344 13.0859C52.9607 12.9568 53.1869 12.8276 53.413 12.6983C58.5489 9.76676 58.5489 9.76676 62.5247 11.0741Z" fill="#71D7FD"/>
<path d="M34.897 51.8489C35.1526 51.8459 35.4082 51.8428 35.6716 51.8396C35.9484 51.8403 36.2252 51.8413 36.5021 51.8425C36.7891 51.8415 37.0761 51.8403 37.3632 51.8388C37.9641 51.8368 38.5649 51.8377 39.1658 51.8406C39.9311 51.8439 40.6961 51.8393 41.4614 51.8324C42.0543 51.8281 42.6471 51.8284 43.24 51.8301C43.5218 51.8302 43.8037 51.8289 44.0855 51.826C46.1062 51.8084 47.6186 52.0699 49.1943 53.4058C50.6 55.1009 50.8359 56.4162 50.8278 58.5602C50.8308 59.0192 50.834 59.4783 50.8373 59.9373C50.8405 60.6569 50.8423 61.3764 50.8409 62.0959C50.8404 62.7933 50.8459 63.4903 50.8522 64.1876C50.8492 64.5066 50.8492 64.5066 50.8462 64.8321C50.8642 66.2568 51.125 67.3746 51.9531 68.5547C52.8844 69.4268 53.6883 69.9415 54.9873 69.9494C59.0115 70.0206 59.0115 70.0206 60.4736 71.3913C61.3596 72.383 61.5714 73.1356 61.5906 74.4492C61.5934 74.584 61.5963 74.7188 61.5992 74.8578C61.6083 75.2877 61.615 75.7175 61.6211 76.1475C61.6292 76.7126 61.6397 77.2776 61.6516 77.8427C61.6553 78.0935 61.6589 78.3442 61.6627 78.6025C61.7381 79.5788 61.7381 79.5788 62.1094 80.4688C62.8828 80.6621 62.8828 80.6621 63.6719 80.8594C63.6074 83.3731 63.543 85.8867 63.4766 88.4766C61.9364 89.1366 61.9364 89.1366 61.2274 89.3334C61.0001 89.3966 61.0001 89.3966 60.7681 89.4611C60.6145 89.5028 60.461 89.5445 60.3027 89.5874C60.1461 89.6313 59.9895 89.6753 59.8282 89.7205C59.1944 89.8949 58.6692 90.0391 58.0078 90.0391C58.0039 89.9024 58.0001 89.7657 57.9961 89.6249C57.9772 88.9939 57.9559 88.3629 57.9346 87.7319C57.9255 87.4096 57.9255 87.4096 57.9163 87.0808C57.8177 84.2974 57.4046 82.1399 55.468 80.0491C53.4051 78.1357 50.7866 77.8429 48.0789 77.8504C47.8517 77.8482 47.6244 77.8461 47.3902 77.8439C46.4298 77.8351 45.4693 77.8327 44.5088 77.8298C43.8027 77.8268 43.0966 77.8203 42.3904 77.8137C42.0669 77.8146 42.0669 77.8146 41.7369 77.8155C40.2884 77.8014 39.3908 77.5832 38.147 76.8311C37.0152 75.6687 36.7815 74.1622 36.5653 72.6095C36.4196 71.6676 36.1041 71.0765 35.5469 70.3125C35.4824 70.1192 35.418 69.9258 35.3516 69.7266C35.0166 69.5261 35.0166 69.5261 34.5703 69.3359C34.2287 69.1373 33.8896 68.9348 33.551 68.7309C32.8017 68.3514 32.0914 68.3358 31.2607 68.3319C31.0341 68.3281 30.8075 68.3244 30.574 68.3205C30.1016 68.3139 29.629 68.3103 29.1565 68.3098C27.443 68.2739 26.0661 67.9913 24.7776 66.8019C23.6866 65.649 23.2145 64.5822 23.1689 62.9883C23.215 61.3771 23.7039 60.3258 24.7902 59.153C26.0007 58.0656 27.1998 57.7683 28.7857 57.6874C29.8248 57.5447 30.5668 56.9805 31.2378 56.2012C31.4341 55.6932 31.4877 55.3335 31.5308 54.7974C31.6065 53.9205 31.8369 53.4142 32.4219 52.7344C33.2702 52.0705 33.8232 51.8548 34.897 51.8489Z" fill="#9FE356"/>
<path d="M49.8047 3.90627C49.9017 6.97595 48.4879 9.91362 46.4406 12.1299C45.3446 13.2824 44.2092 14.3968 43.0786 15.5152C42.586 16.0026 42.0939 16.4907 41.6023 16.9792C41.4902 17.0897 41.3781 17.2002 41.2627 17.314C40.3154 18.2452 40.3154 18.2452 39.9315 19.487C39.9667 20.9044 40.7377 22.1305 41.3696 23.3643C41.5051 23.6352 41.6402 23.9064 41.775 24.1777C42.0452 24.7209 42.3168 25.2634 42.5898 25.8053C43.1013 26.8237 43.5914 27.8521 44.0796 28.8819C44.2501 29.2395 44.4208 29.597 44.5915 29.9545C44.6763 30.1322 44.7612 30.3099 44.8485 30.493C45.2415 31.3146 45.6364 32.1352 46.0313 32.9559C46.3293 33.5758 46.6263 34.1963 46.9231 34.8168C47.2513 35.5028 47.5829 36.187 47.9195 36.8691C48.0474 37.1323 48.1753 37.3955 48.3032 37.6587C48.4112 37.8775 48.5192 38.0963 48.6305 38.3217C48.8281 38.8672 48.8281 38.8672 48.8365 39.2723C48.5088 39.8774 48.0043 40.2088 47.4609 40.625C46.1709 39.1181 44.9588 37.5689 43.7759 35.9772C43.1601 35.1486 42.5347 34.3277 41.9067 33.5083C41.8017 33.3712 41.6967 33.2342 41.5885 33.0929C41.3751 32.8145 41.1616 32.536 40.9481 32.2576C40.5123 31.6889 40.0772 31.1195 39.6423 30.5501C39.4285 30.2704 39.2145 29.9909 39.0004 29.7115C38.5061 29.0666 38.0137 28.4206 37.5267 27.7703C37.4394 27.6545 37.3521 27.5388 37.2621 27.4195C37.0293 27.1108 36.7977 26.8012 36.5662 26.4916C35.9178 25.721 35.4292 25.2555 34.436 25.0366C33.6482 25.081 33.2814 25.4066 32.7145 25.9359C32.457 26.1758 32.457 26.1758 32.1943 26.4206C31.1989 27.378 30.2175 28.3483 29.2419 29.3259C29.018 29.5497 28.794 29.7735 28.57 29.9973C28.1049 30.4621 27.6401 30.9273 27.1755 31.3928C26.5803 31.9891 25.9842 32.5845 25.3879 33.1797C24.9271 33.6398 24.4668 34.1003 24.0066 34.561C23.7868 34.7809 23.5669 35.0007 23.3469 35.2203C23.0408 35.5259 22.7353 35.8321 22.43 36.1385C22.2564 36.3123 22.0827 36.4861 21.9038 36.6652C21.0282 37.5925 21.0472 38.1597 21.0678 39.381C21.1095 40.4376 21.1943 41.4885 21.2891 42.5415C21.3591 43.3347 21.4249 44.1279 21.4844 44.9219C21.5045 45.1787 21.5247 45.4355 21.5454 45.7001C21.4684 46.4431 21.2539 46.6652 20.7031 47.1558C20.5581 47.2885 20.4131 47.4211 20.2637 47.5578C20.1509 47.6548 20.0381 47.7517 19.9219 47.8516C19.4891 47.4188 19.4303 47.2137 19.278 46.6339C19.2323 46.4633 19.1867 46.2926 19.1397 46.1168C19.0917 45.9319 19.0436 45.7471 18.9941 45.5567C18.8901 45.1665 18.7861 44.7764 18.6821 44.3863C18.6289 44.185 18.5758 43.9836 18.521 43.7761C18.2627 42.7982 18.0004 41.8213 17.7368 40.8447C17.6672 40.5824 17.6672 40.5824 17.5962 40.3147C17.4657 39.8304 17.3272 39.349 17.1875 38.8672C17.1513 38.7211 17.1152 38.575 17.0779 38.4245C16.9078 37.8388 16.7673 37.4356 16.2804 37.051C15.3238 36.5386 14.2846 36.2958 13.2324 36.0596C11.345 35.6129 9.49583 35.0719 7.64265 34.5014C7.05029 34.3215 6.45525 34.1523 5.85938 33.9844C6.04635 33.7645 6.23357 33.5448 6.4209 33.3252C6.52513 33.2029 6.62936 33.0805 6.73676 32.9544C6.95592 32.7035 7.18627 32.4622 7.42188 32.2266C7.96787 32.2248 8.49025 32.2459 9.0332 32.2876C9.19108 32.298 9.34895 32.3085 9.51161 32.3192C10.2423 32.3683 10.9725 32.4245 11.7027 32.4799C12.1517 32.5138 12.6008 32.5456 13.0501 32.5752C13.4549 32.6026 13.8595 32.6363 14.2632 32.6775C15.2615 32.7511 15.2615 32.7511 16.1706 32.3969C16.2811 32.2938 16.3916 32.1907 16.5055 32.0845C16.7074 31.8972 16.7074 31.8972 16.9133 31.706C17.924 30.7244 18.9258 29.7349 19.9211 28.7377C20.1636 28.4953 20.4061 28.253 20.6487 28.0107C21.1538 27.5059 21.6585 27.0007 22.163 26.4953C22.8103 25.8469 23.4585 25.1993 24.107 24.552C24.6065 24.0532 25.1055 23.554 25.6044 23.0546C25.8434 22.8154 26.0825 22.5765 26.3218 22.3376C26.6547 22.0053 26.9869 21.6723 27.3189 21.3392C27.418 21.2405 27.5171 21.1418 27.6193 21.04C28.2859 20.4032 28.2859 20.4032 28.5538 19.5542C28.5311 18.8326 28.4684 18.3316 27.9791 17.7782C27.8352 17.6568 27.6912 17.5354 27.5429 17.4103C27.3837 17.2757 27.2245 17.1411 27.0605 17.0024C26.2939 16.3854 25.5123 15.7926 24.7192 15.21C23.4222 14.2473 22.1343 13.2752 20.8618 12.2803C19.7189 11.3871 18.5722 10.4995 17.4194 9.61916C17.2836 9.51491 17.1477 9.41066 17.0077 9.30326C16.3593 8.80634 15.7082 8.31456 15.0482 7.83312C14.9288 7.74481 14.8094 7.6565 14.6864 7.56552C14.3655 7.32849 14.0428 7.09395 13.7199 6.85961C13.5752 6.7229 13.4304 6.58619 13.2812 6.44533C13.2812 5.66408 13.2812 5.66408 13.7695 5.12697C13.9307 4.98195 14.0918 4.83693 14.2578 4.68752C14.9887 4.97013 15.6922 5.28995 16.3971 5.63204C16.6244 5.74209 16.8517 5.85215 17.0858 5.96554C17.2058 6.0238 17.3257 6.08205 17.4493 6.14208C17.958 6.38917 18.467 6.63554 18.976 6.88194C19.2371 7.00834 19.4982 7.13477 19.7593 7.26123C20.9677 7.84655 22.1779 8.42826 23.3887 9.00881C23.7854 9.19904 24.1821 9.38926 24.5789 9.57949C24.8731 9.72054 24.8731 9.72054 25.1732 9.86445C26.0259 10.2737 26.8782 10.6841 27.7304 11.0944C28.3485 11.3915 28.9672 11.6872 29.586 11.9827C30.2201 12.2857 30.8517 12.5921 31.4796 12.9074C33.0571 13.7087 33.0571 13.7087 34.7656 13.6719C36.5311 12.4624 38.0111 10.6197 39.496 9.08863C42.3707 6.12917 45.5059 3.7698 49.8047 3.90627Z" fill="#FCFCFC"/>
<path d="M82.8125 26.1719C83.6201 26.441 83.8552 26.99 84.2774 27.6855C84.3621 27.8238 84.4468 27.9621 84.534 28.1046C87.1462 32.4358 89.0361 36.8326 90.0391 41.7969C90.0966 42.0728 90.0966 42.0728 90.1552 42.3542C90.2721 42.9244 90.3826 43.4955 90.4908 44.0674C90.5243 44.2347 90.5579 44.4019 90.5924 44.5743C90.9223 46.4297 90.8204 48.0309 90.8204 50C87.6622 50 84.504 50 81.25 50C81.0567 49.3232 81.0567 49.3232 80.8594 48.6328C80.0803 48.1064 79.1658 48.1875 78.2549 48.1923C78.0127 48.1912 78.0127 48.1912 77.7656 48.1902C77.416 48.1888 77.0663 48.1883 76.7167 48.1886C76.1623 48.1888 75.6081 48.1863 75.0538 48.1829C73.478 48.1739 71.9023 48.1691 70.3266 48.1678C69.3617 48.1668 68.3969 48.1621 67.4321 48.155C67.0654 48.1531 66.6987 48.1527 66.3321 48.1537C65.8179 48.1551 65.3039 48.1517 64.7898 48.1473C64.6399 48.1489 64.4899 48.1505 64.3355 48.1521C63.1465 48.1341 62.1132 47.8091 61.2243 46.9899C59.9293 45.5189 59.9986 43.8565 60.108 42.0014C60.2416 40.8947 60.8523 40.2991 61.6333 39.5752C62.4501 39.0307 63.0741 38.8194 64.0609 38.6842C65.5548 38.4772 66.7038 38.2517 67.7735 37.1094C67.9225 36.9523 68.0716 36.7952 68.2251 36.6333C68.9823 35.4835 69.215 34.4866 69.3116 33.1421C69.4952 31.2181 70.0913 29.7134 71.4844 28.3203C73.1056 27.0538 74.6165 26.4774 76.6594 26.4694C76.8302 26.4664 77.0009 26.4633 77.1768 26.4602C77.7167 26.451 78.2565 26.4455 78.7964 26.4404C79.3412 26.4333 79.886 26.4254 80.4307 26.4165C80.7685 26.4112 81.1063 26.407 81.444 26.4041C82.1887 26.4666 82.1887 26.4666 82.8125 26.1719Z" fill="#9FE456"/>
<path d="M10.5469 39.4531C12.8382 39.7386 12.8382 39.7386 13.4766 40.0391C13.7779 40.6005 13.9134 41.1806 14.0625 41.7969C14.1431 42.0023 14.2237 42.2078 14.3067 42.4194C14.4877 43.0983 14.4334 43.4587 14.2578 44.1406C13.9669 44.6197 13.6732 45.0585 13.3423 45.5078C12.2533 47.033 11.2482 48.6036 10.2557 50.193C10.1438 50.371 10.032 50.549 9.91671 50.7324C9.81685 50.8925 9.71699 51.0527 9.61411 51.2177C9.49576 51.3884 9.49576 51.3884 9.37502 51.5625C9.31057 51.5625 9.24611 51.5625 9.17971 51.5625C9.07271 47.3958 9.41312 43.4702 10.5469 39.4531Z" fill="#6FD3F9"/>
<path d="M21.6797 17.7734C21.9654 17.9551 22.25 18.1386 22.5342 18.3228C22.7721 18.4757 22.7721 18.4757 23.0148 18.6317C23.4375 18.9453 23.4375 18.9453 23.8281 19.5312C22.6295 20.757 21.4277 21.9796 20.2218 23.1983C19.6619 23.7643 19.1032 24.3313 18.547 24.9008C18.01 25.4505 17.4703 25.9972 16.9285 26.542C16.7224 26.7503 16.5173 26.9597 16.3132 27.17C16.0271 27.4647 15.7375 27.7555 15.4468 28.0457C15.2828 28.2122 15.1189 28.3787 14.95 28.5503C14.3422 28.9857 14.0136 28.9944 13.2812 28.9062C13.1523 28.8418 13.0234 28.7773 12.8906 28.7109C14.1181 25.3962 18.3689 19.4288 21.6797 17.7734Z" fill="#70D4FA"/>
<path d="M83.1421 76.4771C83.8322 76.9061 83.965 77.3547 84.1796 78.125C84.0656 78.8727 83.8963 79.3412 83.4594 79.9561C82.8466 80.3867 82.3846 80.4427 81.6406 80.4688C80.9849 80.3198 80.7392 80.1688 80.31 79.6509C80.0111 78.943 79.971 78.4971 80.0781 77.7344C80.8631 76.4348 81.6832 76.1717 83.1421 76.4771Z" fill="#010304"/>
<path d="M53.3203 7.22656C53.8459 7.26101 54.361 7.34734 54.8828 7.42188C54.3256 7.87592 53.8006 8.15446 53.125 8.39844C53.1167 8.07302 53.1171 7.7473 53.125 7.42188C53.1895 7.35742 53.2539 7.29297 53.3203 7.22656Z" fill="#6BCCF1"/>
</g>
<defs>
<clipPath id="clip0_5_63">
<rect width="100" height="100" fill="white"/>
</clipPath>
</defs>
</svg>
